<svg version="1.1" id="Layer_1" xmlns="http://www.w3.org/2000/svg" xmlns:xlink="http://www.w3.org/1999/xlink" x="0px" y="0px"
	 width="100%" viewBox="0 0 512 512" enable-background="new 0 0 512 512" xml:space="preserve">
<path fill="none" opacity="1.000000" stroke="none" 
	d="
M0.999998,230.000000 
	C1.000000,153.700394 1.000000,77.400787 1.000000,1.050592 
	C171.557526,1.050592 342.115051,1.050592 513.000000,1.050592 
	C513.000000,82.687805 513.000000,164.376053 512.747437,246.867126 
	C511.825531,246.770676 510.995544,245.950027 510.511353,244.960205 
	C504.563416,232.800537 494.039185,229.637527 481.791412,231.125214 
	C471.816559,232.336823 465.664032,238.960022 461.426361,247.976303 
	C391.671112,247.984238 322.375305,247.973312 253.051605,247.496826 
	C253.049393,239.025345 253.075058,231.019424 253.559998,223.007370 
	C302.269165,223.000778 350.519196,223.052994 398.768646,222.902130 
	C402.728119,222.889755 406.939392,222.121353 410.593109,220.627060 
	C422.201538,215.879410 426.821655,206.363281 426.977173,194.351959 
	C427.160217,180.219559 427.164032,166.084854 427.553650,151.821274 
	C431.687836,148.507523 436.333954,145.921722 439.178406,142.021851 
	C446.251587,132.324173 445.912842,118.965622 438.368439,110.049561 
	C431.667786,102.130577 421.253876,97.844772 409.547302,101.260948 
	C399.509552,104.190125 391.460693,114.693253 390.955933,124.417023 
	C390.282440,137.392471 397.480316,147.346725 408.088959,152.268616 
	C408.012024,166.904617 408.009094,181.063461 407.998505,195.222321 
	C407.993835,201.518814 405.459625,203.997498 399.025177,203.998062 
	C350.385223,204.002304 301.745300,204.003510 253.068604,203.537933 
	C253.044342,195.064163 253.056839,187.058121 253.530945,179.028839 
	C254.991013,179.003677 255.989517,179.000031 256.988007,179.000031 
	C290.271484,178.999741 323.555328,179.062958 356.837646,178.867310 
	C359.227844,178.853256 362.215485,177.522461 363.850708,175.789719 
	C366.402222,173.086014 367.095062,169.368271 364.935486,165.835220 
	C362.792938,162.330093 359.672302,160.921951 355.436279,160.935257 
	C321.321167,161.042374 287.205536,160.983047 253.058533,160.510254 
	C253.052933,155.033508 253.078827,150.021072 253.563721,145.005127 
	C273.174927,145.001312 292.327301,144.955521 311.479340,145.014343 
	C328.476196,145.066559 340.179901,132.983063 340.036713,116.574806 
	C339.887054,99.422752 340.027679,82.268173 340.362061,64.963036 
	C351.508606,59.699005 357.244446,51.549152 357.074921,39.183537 
	C356.833710,21.586821 340.899597,9.964040 322.956268,14.751772 
	C311.090149,17.917952 304.384460,27.926321 304.126282,39.641216 
	C303.892303,50.257801 310.230377,61.209629 321.979431,65.579094 
	C321.997375,82.328621 322.019073,98.617188 321.990845,114.905670 
	C321.977325,122.714363 318.724091,125.999008 311.155273,125.999176 
	C295.199158,125.999519 279.242249,125.909027 263.287384,126.051956 
	C258.228027,126.097275 253.174271,126.764397 247.648895,127.096100 
	C242.567993,127.346855 237.908691,127.327332 233.351776,128.000671 
	C195.158951,133.644012 165.162018,152.649826 143.827682,184.650543 
	C124.808487,213.178635 118.361336,244.640381 123.877197,278.652344 
	C128.276566,305.779694 140.323288,328.915405 159.171982,348.556213 
	C171.904312,361.823608 187.010666,371.982666 204.214432,378.477631 
	C218.272522,383.785004 232.737228,387.989349 248.538605,386.906952 
	C251.694107,387.311371 254.426773,387.940887 257.162537,387.954498 
	C275.122650,388.044067 293.083405,388.000549 311.043976,388.000732 
	C318.618073,388.000793 321.976807,391.314636 321.988312,398.991089 
	C322.013275,415.620972 321.975494,432.250977 321.601807,448.937500 
	C310.389130,453.613129 304.581482,462.075287 304.120117,473.591156 
	C303.563690,487.481110 316.159760,501.170502 332.039337,500.288422 
	C347.707825,499.418030 360.973236,484.979767 356.270569,466.748108 
	C354.009186,457.980835 348.167603,452.369507 340.021301,448.424072 
	C340.002991,431.472321 339.739868,414.976562 340.070679,398.492676 
	C340.431763,380.502319 328.183899,368.884247 310.571625,368.976044 
	C291.416534,369.075867 272.260437,368.994019 253.068146,368.526428 
	C253.050995,363.049469 253.070465,358.037445 253.550079,353.014160 
	C288.122345,353.001892 322.234436,353.014862 356.346558,352.986023 
	C361.918457,352.981323 365.972260,349.140594 365.999542,344.057617 
	C366.029114,338.547882 362.290680,335.006134 356.403229,335.002380 
	C321.958710,334.980530 287.514191,334.965393 253.045227,334.483154 
	C253.048920,326.010345 253.077087,318.002350 253.564301,309.997192 
	C302.339966,310.000244 350.656586,309.999603 398.973236,310.001740 
	C405.624664,310.002014 407.981537,312.431793 408.002930,319.228394 
	C408.048035,333.553101 408.109009,347.877747 407.929596,362.468781 
	C395.021027,367.172424 389.140930,381.475372 391.515076,393.220215 
	C394.055084,405.785675 408.887207,416.888153 423.351074,413.026825 
	C435.394348,409.811676 442.490723,402.700104 443.881714,389.791840 
	C445.308136,376.554230 438.233673,367.829010 427.001038,361.469360 
	C427.001007,347.176239 427.064026,333.347198 426.984741,319.519012 
	C426.888855,302.796265 415.396362,290.991180 398.551727,290.994873 
	C350.068085,291.005463 301.584442,290.991058 253.065491,290.519836 
	C253.046524,282.047852 253.062836,274.042480 253.540131,266.020752 
	C323.296143,266.016968 392.591156,266.029602 461.966919,266.392151 
	C466.805847,277.181366 474.862610,283.477997 486.348480,283.472382 
	C496.997253,283.467163 505.878174,279.142120 510.734406,268.767273 
	C511.096313,267.994080 512.226807,267.580658 513.000000,267.000000 
	C513.000000,348.963806 513.000000,430.927612 513.000000,512.945679 
	C342.444855,512.945679 171.889709,512.945679 1.000000,512.945679 
	C1.000000,436.978882 1.000000,360.957306 1.228884,284.115143 
	C4.598955,289.190979 9.202753,293.490845 15.819386,294.819916 
	C22.701502,296.202332 29.684500,297.178833 36.665722,297.949188 
	C47.460560,299.140350 47.280170,299.057800 50.247189,309.473877 
	C56.115150,330.074036 64.158424,349.754639 75.461662,368.051208 
	C76.352791,369.493683 76.320663,372.496246 75.396179,373.909180 
	C69.601082,382.766022 63.381866,391.343933 57.402760,400.082428 
	C53.681747,405.520691 54.550385,413.769073 58.741398,418.191040 
	C67.805496,427.754547 76.887062,437.308044 86.200043,446.627228 
	C95.047218,455.480316 104.270012,458.000397 114.539062,449.296753 
	C121.110458,443.727051 128.522766,439.152222 135.529343,434.091614 
	C137.690247,432.530884 139.358459,432.411560 141.836609,434.122040 
	C146.644775,437.440704 151.807800,440.302704 157.023026,442.963379 
	C172.737045,450.980103 189.272034,456.795410 206.381485,461.071686 
	C207.789642,461.423676 209.602615,463.159454 209.882202,464.527252 
	C211.480362,472.345886 212.708420,480.241699 213.989304,488.123169 
	C215.197922,495.559998 215.888214,504.019135 224.349014,506.421906 
	C231.613373,508.484894 239.578781,508.705811 247.196136,508.476532 
	C249.202835,508.416138 252.696304,503.702148 252.744690,501.074280 
	C253.179993,477.422455 253.038284,453.759186 252.962769,430.099609 
	C252.949493,425.941315 251.061783,422.712158 246.657944,421.923615 
	C242.013016,421.091888 237.316086,420.484711 232.617661,420.029205 
	C214.897766,418.311340 198.105865,413.213684 182.169037,405.530518 
	C158.273788,394.010651 138.151413,377.715332 122.015221,356.549194 
	C100.437019,328.244659 89.278404,296.099030 88.285286,260.778442 
	C87.910675,247.455627 89.444870,233.742599 92.397720,220.726685 
	C100.820946,183.597794 120.168022,152.671936 149.874954,128.827896 
	C177.056274,107.011017 208.244553,94.727783 243.307755,92.989807 
	C249.295563,92.693008 252.971451,89.138802 252.981750,83.497276 
	C253.024384,60.170765 253.018143,36.844105 252.984146,13.517567 
	C252.976990,8.605027 249.316299,4.936217 244.318069,5.048787 
	C239.547333,5.156234 234.788086,5.706673 230.019440,5.988842 
	C223.323044,6.385079 217.519867,10.359188 216.065887,17.053108 
	C213.513809,28.802670 211.699524,40.712490 209.571091,52.583752 
	C185.373932,57.434090 162.882828,66.653816 142.011703,79.723656 
	C139.253708,81.450745 137.559937,81.327927 135.323639,79.733826 
	C127.085899,73.861725 118.811028,68.040771 110.624611,62.097958 
	C105.054649,58.054516 96.259468,58.656540 91.724586,62.893780 
	C81.366821,72.571747 70.945274,82.225166 61.216297,92.518661 
	C53.321369,100.871681 52.941483,108.172180 59.785885,117.496010 
	C65.177902,124.841324 70.381744,132.337051 75.327080,139.987091 
	C76.262093,141.433487 76.304100,144.265472 75.528992,145.860947 
	C72.972198,151.123795 69.681396,156.024323 66.979774,161.223648 
	C58.990955,176.598282 52.971790,192.767685 49.329742,209.676544 
	C48.457130,213.727814 46.275223,214.424347 43.519344,214.901978 
	C34.674664,216.434906 25.783499,217.707047 16.897572,218.992020 
	C10.826122,219.869965 6.216883,222.744400 3.256324,228.220734 
	C2.838117,228.994324 1.768244,229.415634 0.999998,230.000000 
z"/>
<path fill="#3B97D3" opacity="1.000000" stroke="none" 
	d="
M0.999998,230.468658 
	C1.768244,229.415634 2.838117,228.994324 3.256324,228.220734 
	C6.216883,222.744400 10.826122,219.869965 16.897572,218.992020 
	C25.783499,217.707047 34.674664,216.434906 43.519344,214.901978 
	C46.275223,214.424347 48.457130,213.727814 49.329742,209.676544 
	C52.971790,192.767685 58.990955,176.598282 66.979774,161.223648 
	C69.681396,156.024323 72.972198,151.123795 75.528992,145.860947 
	C76.304100,144.265472 76.262093,141.433487 75.327080,139.987091 
	C70.381744,132.337051 65.177902,124.841324 59.785885,117.496010 
	C52.941483,108.172180 53.321369,100.871681 61.216297,92.518661 
	C70.945274,82.225166 81.366821,72.571747 91.724586,62.893780 
	C96.259468,58.656540 105.054649,58.054516 110.624611,62.097958 
	C118.811028,68.040771 127.085899,73.861725 135.323639,79.733826 
	C137.559937,81.327927 139.253708,81.450745 142.011703,79.723656 
	C162.882828,66.653816 185.373932,57.434090 209.571091,52.583752 
	C211.699524,40.712490 213.513809,28.802670 216.065887,17.053108 
	C217.519867,10.359188 223.323044,6.385079 230.019440,5.988842 
	C234.788086,5.706673 239.547333,5.156234 244.318069,5.048787 
	C249.316299,4.936217 252.976990,8.605027 252.984146,13.517567 
	C253.018143,36.844105 253.024384,60.170765 252.981750,83.497276 
	C252.971451,89.138802 249.295563,92.693008 243.307755,92.989807 
	C208.244553,94.727783 177.056274,107.011017 149.874954,128.827896 
	C120.168022,152.671936 100.820946,183.597794 92.397720,220.726685 
	C89.444870,233.742599 87.910675,247.455627 88.285286,260.778442 
	C89.278404,296.099030 100.437019,328.244659 122.015221,356.549194 
	C138.151413,377.715332 158.273788,394.010651 182.169037,405.530518 
	C198.105865,413.213684 214.897766,418.311340 232.617661,420.029205 
	C237.316086,420.484711 242.013016,421.091888 246.657944,421.923615 
	C251.061783,422.712158 252.949493,425.941315 252.962769,430.099609 
	C253.038284,453.759186 253.179993,477.422455 252.744690,501.074280 
	C252.696304,503.702148 249.202835,508.416138 247.196136,508.476532 
	C239.578781,508.705811 231.613373,508.484894 224.349014,506.421906 
	C215.888214,504.019135 215.197922,495.559998 213.989304,488.123169 
	C212.708420,480.241699 211.480362,472.345886 209.882202,464.527252 
	C209.602615,463.159454 207.789642,461.423676 206.381485,461.071686 
	C189.272034,456.795410 172.737045,450.980103 157.023026,442.963379 
	C151.807800,440.302704 146.644775,437.440704 141.836609,434.122040 
	C139.358459,432.411560 137.690247,432.530884 135.529343,434.091614 
	C128.522766,439.152222 121.110458,443.727051 114.539062,449.296753 
	C104.270012,458.000397 95.047218,455.480316 86.200043,446.627228 
	C76.887062,437.308044 67.805496,427.754547 58.741398,418.191040 
	C54.550385,413.769073 53.681747,405.520691 57.402760,400.082428 
	C63.381866,391.343933 69.601082,382.766022 75.396179,373.909180 
	C76.320663,372.496246 76.352791,369.493683 75.461662,368.051208 
	C64.158424,349.754639 56.115150,330.074036 50.247189,309.473877 
	C47.280170,299.057800 47.460560,299.140350 36.665722,297.949188 
	C29.684500,297.178833 22.701502,296.202332 15.819386,294.819916 
	C9.202753,293.490845 4.598955,289.190979 1.228884,283.647278 
	C1.000000,266.312439 1.000000,248.624878 0.999998,230.468658 
z"/>
<path fill="#26B99A" opacity="1.000000" stroke="none" 
	d="
M513.000000,266.531586 
	C512.226807,267.580658 511.096313,267.994080 510.734406,268.767273 
	C505.878174,279.142120 496.997253,283.467163 486.348480,283.472382 
	C474.862610,283.477997 466.805847,277.181366 462.022827,265.969482 
	C461.960571,259.450409 461.923187,253.703934 461.885803,247.957443 
	C465.664032,238.960022 471.816559,232.336823 481.791412,231.125214 
	C494.039185,229.637527 504.563416,232.800537 510.511353,244.960205 
	C510.995544,245.950027 511.825531,246.770676 512.747437,247.334961 
	C513.000000,253.354385 513.000000,259.708771 513.000000,266.531586 
z"/>
<path fill="#285680" opacity="1.000000" stroke="none" 
	d="
M253.105255,309.994354 
	C253.077087,318.002350 253.048920,326.010345 252.934128,334.943420 
	C252.928314,341.587463 253.009125,347.306458 253.089935,353.025452 
	C253.070465,358.037445 253.050995,363.049469 252.975220,368.976562 
	C252.471680,375.870117 253.993668,382.406250 248.117188,386.847198 
	C232.737228,387.989349 218.272522,383.785004 204.214432,378.477631 
	C187.010666,371.982666 171.904312,361.823608 159.171982,348.556213 
	C140.323288,328.915405 128.276566,305.779694 123.877197,278.652344 
	C118.361336,244.640381 124.808487,213.178635 143.827682,184.650543 
	C165.162018,152.649826 195.158951,133.644012 233.351776,128.000671 
	C237.908691,127.327332 242.567993,127.346855 247.785675,127.399704 
	C251.754974,130.207840 252.918350,133.583603 252.783218,137.642609 
	C252.701691,140.091660 252.985229,142.552887 253.104736,145.008636 
	C253.078827,150.021072 253.052933,155.033508 252.958801,160.971588 
	C252.950165,167.615524 253.009750,173.333786 253.069336,179.052063 
	C253.056839,187.058121 253.044342,195.064163 252.981552,204.000504 
	C252.987747,210.958359 253.044235,216.985916 253.100723,223.013489 
	C253.075058,231.019424 253.049393,239.025345 252.947189,247.957779 
	C252.940155,254.601883 253.009659,260.319489 253.079163,266.037109 
	C253.062836,274.042480 253.046524,282.047852 252.969620,290.981659 
	C252.974442,297.938171 253.039856,303.966278 253.105255,309.994354 
z"/>
<path fill="#BDC3C7" opacity="1.000000" stroke="none" 
	d="
M253.559998,223.007370 
	C253.044235,216.985916 252.987747,210.958359 253.018311,204.468231 
	C301.745300,204.003510 350.385223,204.002304 399.025177,203.998062 
	C405.459625,203.997498 407.993835,201.518814 407.998505,195.222321 
	C408.009094,181.063461 408.012024,166.904617 408.509033,152.266876 
	C415.081848,151.842377 421.163696,151.896759 427.245544,151.951141 
	C427.164032,166.084854 427.160217,180.219559 426.977173,194.351959 
	C426.821655,206.363281 422.201538,215.879410 410.593109,220.627060 
	C406.939392,222.121353 402.728119,222.889755 398.768646,222.902130 
	C350.519196,223.052994 302.269165,223.000778 253.559998,223.007370 
z"/>
<path fill="#BDC3C7" opacity="1.000000" stroke="none" 
	d="
M253.564301,309.997192 
	C253.039856,303.966278 252.974442,297.938171 253.004913,291.448303 
	C301.584442,290.991058 350.068085,291.005463 398.551727,290.994873 
	C415.396362,290.991180 426.888855,302.796265 426.984741,319.519012 
	C427.064026,333.347198 427.001007,347.176239 426.580200,361.566803 
	C420.160706,362.153290 414.162109,362.177856 408.163513,362.202423 
	C408.109009,347.877747 408.048035,333.553101 408.002930,319.228394 
	C407.981537,312.431793 405.624664,310.002014 398.973236,310.001740 
	C350.656586,309.999603 302.339966,310.000244 253.564301,309.997192 
z"/>
<path fill="#BDC3C7" opacity="1.000000" stroke="none" 
	d="
M253.540131,266.020752 
	C253.009659,260.319489 252.940155,254.601883 252.975052,248.423340 
	C322.375305,247.973312 391.671112,247.984238 461.426392,247.976303 
	C461.923187,253.703934 461.960571,259.450409 461.942078,265.619568 
	C392.591156,266.029602 323.296143,266.016968 253.540131,266.020752 
z"/>
<path fill="#BDC3C7" opacity="1.000000" stroke="none" 
	d="
M253.563721,145.005127 
	C252.985229,142.552887 252.701691,140.091660 252.783218,137.642609 
	C252.918350,133.583603 251.754974,130.207840 248.254730,127.450569 
	C253.174271,126.764397 258.228027,126.097275 263.287384,126.051956 
	C279.242249,125.909027 295.199158,125.999519 311.155273,125.999176 
	C318.724091,125.999008 321.977325,122.714363 321.990845,114.905670 
	C322.019073,98.617188 321.997375,82.328621 322.398071,65.529488 
	C328.547119,65.050827 334.294250,65.082756 340.041412,65.114693 
	C340.027679,82.268173 339.887054,99.422752 340.036713,116.574806 
	C340.179901,132.983063 328.476196,145.066559 311.479340,145.014343 
	C292.327301,144.955521 273.174927,145.001312 253.563721,145.005127 
z"/>
<path fill="#BDC3C7" opacity="1.000000" stroke="none" 
	d="
M248.538605,386.906952 
	C253.993668,382.406250 252.471680,375.870117 253.011841,369.441528 
	C272.260437,368.994019 291.416534,369.075867 310.571625,368.976044 
	C328.183899,368.884247 340.431763,380.502319 340.070679,398.492676 
	C339.739868,414.976562 340.002991,431.472321 339.598480,448.485962 
	C333.449493,448.966339 327.706451,448.923615 321.963379,448.880920 
	C321.975494,432.250977 322.013275,415.620972 321.988312,398.991089 
	C321.976807,391.314636 318.618073,388.000793 311.043976,388.000732 
	C293.083405,388.000549 275.122650,388.044067 257.162537,387.954498 
	C254.426773,387.940887 251.694107,387.311371 248.538605,386.906952 
z"/>
<path fill="#26B99A" opacity="1.000000" stroke="none" 
	d="
M427.553650,151.821274 
	C421.163696,151.896759 415.081848,151.842377 408.579926,151.789734 
	C397.480316,147.346725 390.282440,137.392471 390.955933,124.417023 
	C391.460693,114.693253 399.509552,104.190125 409.547302,101.260948 
	C421.253876,97.844772 431.667786,102.130577 438.368439,110.049561 
	C445.912842,118.965622 446.251587,132.324173 439.178406,142.021851 
	C436.333954,145.921722 431.687836,148.507523 427.553650,151.821274 
z"/>
<path fill="#26B99A" opacity="1.000000" stroke="none" 
	d="
M407.929565,362.468781 
	C414.162109,362.177856 420.160706,362.153290 426.580200,362.031311 
	C438.233673,367.829010 445.308136,376.554230 443.881714,389.791840 
	C442.490723,402.700104 435.394348,409.811676 423.351074,413.026825 
	C408.887207,416.888153 394.055084,405.785675 391.515076,393.220215 
	C389.140930,381.475372 395.021027,367.172424 407.929565,362.468781 
z"/>
<path fill="#26B99A" opacity="1.000000" stroke="none" 
	d="
M340.362061,64.963036 
	C334.294250,65.082756 328.547119,65.050827 322.381317,65.068497 
	C310.230377,61.209629 303.892303,50.257801 304.126282,39.641216 
	C304.384460,27.926321 311.090149,17.917952 322.956268,14.751772 
	C340.899597,9.964040 356.833710,21.586821 357.074921,39.183537 
	C357.244446,51.549152 351.508606,59.699005 340.362061,64.963036 
z"/>
<path fill="#26B99A" opacity="1.000000" stroke="none" 
	d="
M321.601807,448.937500 
	C327.706451,448.923615 333.449493,448.966339 339.615387,448.947144 
	C348.167603,452.369507 354.009186,457.980835 356.270569,466.748108 
	C360.973236,484.979767 347.707825,499.418030 332.039337,500.288422 
	C316.159760,501.170502 303.563690,487.481110 304.120117,473.591156 
	C304.581482,462.075287 310.389130,453.613129 321.601807,448.937500 
z"/>
<path fill="#BDC3C7" opacity="1.000000" stroke="none" 
	d="
M253.530930,179.028839 
	C253.009750,173.333786 252.950165,167.615524 252.990326,161.435913 
	C287.205536,160.983047 321.321167,161.042374 355.436279,160.935257 
	C359.672302,160.921951 362.792938,162.330093 364.935486,165.835220 
	C367.095062,169.368271 366.402222,173.086014 363.850708,175.789719 
	C362.215485,177.522461 359.227844,178.853256 356.837646,178.867310 
	C323.555328,179.062958 290.271484,178.999741 256.988007,179.000031 
	C255.989517,179.000031 254.991013,179.003677 253.530930,179.028839 
z"/>
<path fill="#BDC3C7" opacity="1.000000" stroke="none" 
	d="
M253.550079,353.014160 
	C253.009125,347.306458 252.928314,341.587463 252.958588,335.408203 
	C287.514191,334.965393 321.958710,334.980530 356.403229,335.002380 
	C362.290680,335.006134 366.029114,338.547882 365.999542,344.057617 
	C365.972260,349.140594 361.918457,352.981323 356.346558,352.986023 
	C322.234436,353.014862 288.122345,353.001892 253.550079,353.014160 
z"/>
</svg>